# AST/ASF file generated using VICON BodyLanguage
# -----------------------------------------------
:version 1.10
:name VICON
:units
  mass 1.0
  length 0.45
  angle deg
:documentation
   .ast/.asf automatically generated from VICON data using
   VICON BodyBuilder and BodyLanguage model FoxedUp or BRILLIANT.MOD
:root
   order TX TY TZ RX RY RZ
   axis XYZ
   position 0 0 0  
   orientation 0 0 0 
:bonedata
  begin
     id 1 
     name lhipjoint
     direction 0.660183 -0.676772 0.325788 
     length 2.75133 
     axis 0 0 0  XYZ
  end
  begin
     id 2 
     name lfemur
     direction 0.34202 -0.939693 0  
     length 7.70317  
     axis 0 0 20  XYZ
    dof rx ry rz
    limits (-160.0 20.0)
           (-70.0 70.0)
           (-60.0 70.0)
  end
  begin
     id 3 
     name ltibia
     direction 0.342105 -0.939662 0   
     length 7.18701   
     axis 0 0 20   XYZ
    dof rx
    limits (-10.0 170.0)
  end
  begin
     id 4 
     name lfoot
     direction 0.14163 -0.389126 0.910232   
     length 2.41719   
     axis -90 7.62852e-016 20   XYZ
    dof rx rz
    limits (-45.0 90.0)
           (-70.0 20.0)
  end
  begin
     id 5 
     name ltoes
     direction 1.53533e-011 -4.21926e-011 1   
     length 1.18611   
     axis -90 7.62852e-016 20   XYZ
    dof rx
    limits (-90.0 20.0)
  end
  begin
     id 6 
     name rhipjoint
     direction -0.6658 -0.67229 0.323631   
     length 2.76968  
     axis 0 0 0  XYZ 
  end
  begin
     id 7 
     name rfemur
     direction -0.34202 -0.939693 0   
     length 7.92547   
     axis 0 0 -20   XYZ
    dof rx ry rz
    limits (-160.0 20.0)
           (-70.0 70.0)
           (-70.0 60.0)
  end
  begin
     id 8 
     name rtibia
     direction -0.342022 -0.939692 0   
     length 7.22641   
     axis 0 0 -20   XYZ
    dof rx
    limits (-10.0 170.0)
 end
 begin
     id 9 
     name rfoot
     direction -0.105675 -0.29034 0.951071   
     length 2.48149  
     axis -90 -7.62852e-016 -20   XYZ
    dof rx rz
    limits (-45.0 90.0)
           (-20.0 70.0)
  end
  begin
     id 10 
     name rtoes
     direction -1.5349e-011 -4.21859e-011 1   
     length 1.23343   
     axis -90 -7.62852e-016 -20   XYZ
    dof rx
    limits (-90.0 20.0)
  end
  begin
     id 11 
     name lowerback
     direction 0.0104173 0.993624 -0.112266   
     length 2.00527   
     axis 0 0 0   XYZ
    dof rx ry rz
    limits (-20.0 45.0)
           (-30.0 30.0)
           (-30.0 30.0)
  end
  begin
     id 12 
     name upperback
     direction 0.00733149 0.999856 -0.0152913   
     length 2.01385   
     axis 0 0 0   XYZ
    dof rx ry rz
    limits (-20.0 45.0)
           (-30.0 30.0)
           (-30.0 30.0)
  end
  begin
     id 13 
     name thorax
     direction 0.0026304 0.999318 0.036841   
     length 2.03734   
     axis 0 0 0   XYZ
    dof rx ry rz
    limits (-20.0 45.0)
           (-30.0 30.0)
           (-30.0 30.0)
  end
  begin
     id 14 
     name lowerneck
     direction 0.0293154 0.998757 0.0403082   
     length 1.65303   
     axis 0 0 0   XYZ
    dof rx ry rz
    limits (-20.0 45.0)
           (-30.0 30.0)
           (-30.0 30.0)
  end
  begin
     id 15 
     name upperneck
     direction -0.0376619 0.998184 -0.0470083   
     length 1.60926   
     axis 0 0 0   XYZ
    dof rx ry rz
    limits (-20.0 45.0)
           (-30.0 30.0)
           (-30.0 30.0)
  end
  begin
     id 16
     name head
     direction -0.0170133 0.999635 -0.0209778  
     length 1.73625  
     axis 0 0 0   XYZ
    dof rx ry rz
    limits (-20.0 45.0)
           (-30.0 30.0)
           (-30.0 30.0)
  end
  begin
     id 17 
     name lclavicle
     direction 0.919857 0.39181 -0.0186333  
     length 3.75313  
     axis 0 0 0   XYZ
    dof ry rz
    limits (-20.0 10.0)
           (0.0 20.0)
  end
  begin
     id 18 
     name lhumerus
     direction 1 -4.48988e-011 1.44029e-027   
     length 5.49313   
     axis 180 -30 -90   XYZ
    dof rx ry rz
    limits (-60.0 90.0)
           (-90.0 90.0)
           (-90.0 90.0)
  end
  begin
     id 19
     name lradius
     direction 1 -4.48924e-011 7.46281e-027   
     length 3.29037   
     axis 180 -30 -90   XYZ
    dof rx
    limits (-10.0 170.0)
  end
  begin
     id 20
     name lwrist
     direction 1 -4.48955e-011 2.19879e-026   
     length 1.64519   
     axis -1.34358e-014 90 90   XYZ
    dof ry
    limits (-180.0 0.0)
 end
  begin
     id 21 
     name lhand
     direction 1 -4.48978e-011 4.39747e-026   
     length 0.729656   
     axis -2.80598e-014 90 90   XYZ
    dof rx rz
    limits (-90.0 90.0)
           (-45.0 45.0)
  end
  begin
     id 22 
     name lfingers
     direction 1 -4.49071e-011 8.79411e-026   
     length 0.588268   
     axis -5.61193e-014 90 90   XYZ
    dof rx
    limits (0.0 90.0)
  end
  begin
     id 23
     name lthumb
     direction 0.707107 -6.34817e-011 0.707107   
     length 0.844638   
     axis -90 45 -9.86923e-015   XYZ
    dof rx rz
    limits (-45.0 45.0)
           (-45.0 45.0)
  end
  begin
     id 24 
     name rclavicle
     direction -0.919898 0.388279 0.0550233   
     length 3.7171  
     axis 0 0 0   XYZ 
    dof ry rz
    limits (-10.0 20.0)
           (-20.0 0.0)
  end
  begin
     id 25 
     name rhumerus
     direction -1 -4.48968e-011 9.98372e-028  
     length 5.23684   
     axis 180 30 90   XYZ
    dof rx ry rz
    limits (-90.0 60.0)
           (-90.0 90.0)
           (-90.0 90.0)
  end
  begin
     id 26 
     name rradius
     direction -1 -4.48956e-011 1.01023e-026   
     length 3.38251   
     axis 180 30 90   XYZ
    dof rx
    limits (-10.0 170.0)
  end
  begin
     id 27 
     name rwrist
     direction -1 -4.4892e-011 2.19886e-026   
     length 1.69126   
     axis -1.34358e-014 -90 -90   XYZ
    dof ry
    limits (-180.0 0.0)
  end
  begin
     id 28
     name rhand
     direction -1 -4.49024e-011 4.39727e-026   
     length 0.691454   
     axis -2.80598e-014 -90 -90   XYZ
    dof rx rz
    limits (-90.0 90.0)
           (-45.0 45.0)
  end
  begin
     id 29
     name rfingers
     direction -1 -4.49097e-011 8.79388e-026   
     length 0.557468   
     axis -5.61193e-014 -90 -90   XYZ
    dof rx
    limits (0.0 90.0)
  end
  begin
     id 30
     name rthumb
     direction -0.707107 -6.34938e-011 0.707107   
     length 0.800416   
     axis -90 -45 9.86923e-015   XYZ
    dof rx rz
    limits (-45.0 45.0)
           (-45.0 45.0)
  end
:hierarchy
  begin
    root lhipjoint rhipjoint lowerback
    lhipjoint lfemur
    lfemur ltibia
    ltibia lfoot
    lfoot ltoes
    rhipjoint rfemur
    rfemur rtibia
    rtibia rfoot
    rfoot rtoes
    lowerback upperback
    upperback thorax
    thorax lowerneck lclavicle rclavicle
    lowerneck upperneck
    upperneck head
    lclavicle lhumerus
    lhumerus lradius
    lradius lwrist
    lwrist lhand lthumb
    lhand lfingers
    rclavicle rhumerus
    rhumerus rradius
    rradius rwrist
    rwrist rhand rthumb
    rhand rfingers
  end

#!OML:ASF H:\BabyWalks\Project 1\Capture day 1\Session 1\baby.ASF
:FULLY-SPECIFIED
:DEGREES
185
root -29.0868 17.3075 -3.15459 -3.65901 77.5087 -9.22326
lowerback 19.0182 1.4162 -5.82508
upperback 5.92228 0.971522 -2.76613
thorax -4.27399 0.632837 0.1294
lowerneck -3.16186 2.62292 6.03535
upperneck -6.4733 3.47667 -0.996024
head -1.36384 1.66988 -1.3323
rclavicle -6.36111e-015 6.99722e-014
rhumerus -47.1528 12.0603 -86.7313
rradius 43.5198
rwrist -4.43736
rhand -11.8592 -15.2804
rfingers 7.12502
rthumb 14.1927 -44.7755
lclavicle -6.36111e-015 6.99722e-014
lhumerus -29.9266 -21.1021 75.7283
lradius 51.1417
lwrist 2.01646
lhand -3.11778 8.43074
lfingers 7.12502
lthumb 22.6009 37.1276
rfemur -18.4494 5.28826 15.188
rtibia 61.1402
rfoot -12.6371 20.7801
rtoes -15.0106
lfemur -15.5902 -5.74052 -15.799
ltibia 37.9278
lfoot -31.8234 -13.4421
ltoes 4.59339
186
root -28.9948 17.3091 -3.15021 -3.75345 77.6997 -9.38893
lowerback 19.057 1.28109 -5.85913
upperback 5.92853 0.789631 -2.70588
thorax -4.28043 0.543445 0.253081
lowerneck -3.12139 2.59667 6.02572
upperneck -6.45975 3.44028 -1.0415
head -1.36711 1.65193 -1.34587
rclavicle 2.46493e-014 -9.54166e-015
rhumerus -47.2748 11.9357 -86.6287
rradius 43.164
rwrist -4.01147
rhand -11.7577 -15.367
rfingers 7.12502
rthumb 14.2905 -44.8553
lclavicle 2.46493e-014 -9.54166e-015
lhumerus -29.4192 -21.5513 75.5829
lradius 51.6947
lwrist 2.37849
lhand -3.56567 8.54501
lfingers 7.12502
lthumb 22.171 37.2936
rfemur -19.4263 4.94048 15.18
rtibia 61.6609
rfoot -13.0823 20.9644
rtoes -14.8597
lfemur -15.2273 -5.76272 -15.8576
ltibia 37.6582
lfoot -31.9621 -13.6454
ltoes 4.74221
187
root -28.9009 17.3133 -3.1443 -4.0103 77.8868 -9.74949
lowerback 19.0763 1.14065 -5.84953
upperback 5.91527 0.608575 -2.6197
thorax -4.29733 0.453915 0.379896
lowerneck -3.08431 2.56775 6.02346
upperneck -6.42842 3.39787 -1.11473
head -1.36386 1.63127 -1.36927
rclavicle 2.46493e-014 -3.02153e-014
rhumerus -47.3981 11.7982 -86.5092
rradius 42.7827
rwrist -3.50937
rhand -11.666 -15.4423
rfingers 7.12502
rthumb 14.3788 -44.9243
lclavicle 2.46493e-014 -3.02153e-014
lhumerus -28.953 -21.9441 75.4379
lradius 52.2414
lwrist 2.75404
lhand -3.97295 8.64704
lfingers 7.12502
lthumb 21.7799 37.4416
rfemur -20.3841 4.62769 15.2404
rtibia 61.9602
rfoot -13.5744 21.0568
rtoes -14.7529
lfemur -14.867 -5.79206 -15.8617
ltibia 37.3467
lfoot -32.0854 -13.8417
ltoes 4.89582
188
root -28.8048 17.3205 -3.13689 -4.38079 78.0594 -10.2471
lowerback 19.0653 1.00297 -5.81526
upperback 5.89445 0.43768 -2.50744
thorax -4.30676 0.368558 0.518796
lowerneck -3.04456 2.53566 6.02673
upperneck -6.39608 3.34977 -1.21639
head -1.36049 1.60793 -1.4028
rclavicle -8.74653e-015 -2.06736e-014
rhumerus -47.5137 11.6499 -86.366
rradius 42.3883
rwrist -2.937
rhand -11.558 -15.5309
rfingers 7.12502
rthumb 14.4829 -45.0055
lclavicle -8.74653e-015 -2.06736e-014
lhumerus -28.5202 -22.2792 75.2982
lradius 52.7959
lwrist 3.14694
lhand -4.32468 8.74896
lfingers 7.12502
lthumb 21.4422 37.5823
rfemur -21.3171 4.36541 15.3546
rtibia 62.0412
rfoot -14.1092 21.0701
rtoes -14.6296
lfemur -14.4908 -5.82375 -15.8269
ltibia 36.9797
lfoot -32.1841 -14.0325
ltoes 5.14249
189
root -28.7063 17.3307 -3.12804 -4.81829 78.2116 -10.8305
lowerback 19.0427 0.867186 -5.75678
upperback 5.85511 0.27285 -2.37893
thorax -4.32994 0.285956 0.659927
lowerneck -2.99754 2.50413 6.02926
upperneck -6.35742 3.30184 -1.33372
head -1.35618 1.58489 -1.44131
rclavicle -1.51076e-014 0
rhumerus -47.6424 11.4975 -86.2141
rradius 41.9927
rwrist -2.30401
rhand -11.4226 -15.6253
rfingers 7.12502
rthumb 14.6134 -45.0905
lclavicle -1.51076e-014 0
lhumerus -28.1432 -22.554 75.1623
lradius 53.3632
lwrist 3.54975
lhand -4.62046 8.84831
lfingers 7.12502
lthumb 21.158 37.7138
rfemur -22.219 4.16188 15.508
rtibia 61.9065
rfoot -14.6117 21.0313
rtoes -14.5135
lfemur -14.0863 -5.85689 -15.7661
ltibia 36.5444
lfoot -32.2495 -14.2129
ltoes 5.49277
190
root -28.6051 17.3437 -3.11783 -5.261 78.3331 -11.4295
lowerback 19.0267 0.734276 -5.67868
upperback 5.78962 0.112155 -2.24459
thorax -4.3846 0.205754 0.794934
lowerneck -2.94433 2.47854 6.03503
upperneck -6.30274 3.26118 -1.46247
head -1.34741 1.56568 -1.48396
rclavicle -1.27222e-014 -1.11319e-014
rhumerus -47.8022 11.3463 -86.0662
rradius 41.608
rwrist -1.61596
rhand -11.2543 -15.7077
rfingers 7.12502
rthumb 14.7755 -45.161
lclavicle -1.27222e-014 -1.11319e-014
lhumerus -27.8318 -22.7582 75.0289
lradius 53.9341
lwrist 3.9481
lhand -4.85721 8.94751
lfingers 7.12502
lthumb 20.9306 37.8383
rfemur -23.0799 4.03229 15.6825
rtibia 61.5603
rfoot -15.103 20.9535
rtoes -14.3562
lfemur -13.6372 -5.88907 -15.6964
ltibia 36.0327
lfoot -32.2822 -14.375
ltoes 5.86413
